<svg width="48" height="48" viewBox="0 0 48 48" fill="none" xmlns="http://www.w3.org/2000/svg">
<path d="M33 35.781V35.6275C32.9234 35.0135 32.6936 34.4763 32.234 34.0158C30.3191 32.2506 29.3234 29.7178 29.3234 27.1083C29.3234 27.0316 29.3234 26.9549 29.3234 26.8781C29.3234 26.1106 29.1702 23.8081 30.2425 22.6569C30.8553 21.9661 31.1617 21.4289 30.9319 20.8149C30.8553 20.5847 29.783 17.2077 29.783 17.2077C29.7064 17.0542 29.6298 16.9774 29.4766 16.9007C29.3234 16.8239 26.2596 15.1354 25.5702 14.8284C24.7277 14.2144 24.0383 13.4469 23.5787 12.6027C23.4255 12.2957 23.2723 11.912 23.1957 11.5282V11.3747C23.1957 11.298 23.1957 11.298 23.1957 11.2212L23.0426 8.07449C23.0426 7.92099 22.966 7.76749 22.8894 7.69074L22.583 7.38375C22.5064 7.307 22.5064 7.30699 22.4298 7.30699C22.2766 7.23024 21.5872 7 19.2894 7C15.9192 7 15.383 7.53724 15.2298 8.07449V8.15124L15.0766 11.0677L15 11.298C15 11.3747 15 11.3747 15 11.4515L15.3064 39.0045C15.2298 40.079 16.0723 40.9232 17.0681 41H31.5447C31.7745 41 31.9277 40.9233 32.0809 40.8465C32.4638 40.4628 32.6936 40.0023 32.6936 39.465C32.7702 38.4673 32.8468 37.4695 32.8468 36.395C33 36.1648 33 36.0113 33 35.781ZM25.034 15.7494C25.5702 16.0564 28.0213 17.3612 28.7872 17.7449C29.017 18.5124 29.783 20.9684 29.8596 21.1219C29.8596 21.1219 29.783 21.2754 29.3234 21.8126C27.9447 23.3476 28.0213 26.0339 28.0979 26.8781C28.0979 26.9549 28.0979 27.0316 28.0979 27.0316C28.0213 29.9481 29.2468 32.7878 31.3915 34.7833C31.5447 34.9368 31.6979 35.167 31.7745 35.3973H16.4553L16.2255 11.9887H22.2766C22.3532 12.3725 22.5064 12.6795 22.6596 12.9864C23.2723 14.1377 24.0383 15.0587 25.034 15.7494ZM19.366 8.07449C20.2085 8.07449 21.1277 8.0745 21.9702 8.228L22.0468 8.30473L22.2 10.991H16.3021L16.4553 8.38148C17.3745 8.07448 18.3702 7.99774 19.366 8.07449ZM31.5447 39.772H17.2213C16.9915 39.772 16.8383 39.6953 16.6851 39.5418C16.5319 39.3883 16.4553 39.158 16.4553 38.9278V36.6253H31.7745C31.7745 37.4695 31.6979 38.3905 31.6213 39.2348C31.6979 39.3883 31.6213 39.5418 31.5447 39.772Z" fill="#9BA0A4"/>
</svg>
