<svg width="48" height="48" viewBox="0 0 48 48" fill="none" xmlns="http://www.w3.org/2000/svg">
<path d="M29.5175 21.9149C28.6293 24.489 29.0179 31.7109 29.6841 32.9264C30.5723 34.0705 31.738 34.7855 33.0148 35C33.2924 35 33.5144 34.9285 33.7365 34.6425C34.2361 33.856 33.9585 20.2704 33.4589 19.4123C33.1259 19.0548 32.6818 18.9118 32.2932 19.0548C31.0164 19.3408 30.0172 20.4134 29.5175 21.9149ZM32.0711 20.2704C32.2377 20.1989 32.4042 20.1988 32.5707 20.1273C32.6262 20.1273 32.6818 20.1273 32.7373 20.1273C33.0703 21.5574 33.2924 32.4259 33.0148 33.9275C32.5152 33.999 30.7388 32.9979 30.2947 32.2829C29.8506 31.5678 29.351 24.8466 30.1837 22.3439C30.5723 21.3429 31.2384 20.5564 32.0711 20.2704Z" fill="#9BA0A4"/>
<path d="M26.3907 14.2012C27.9672 14.6006 29.6 14.8669 31.2328 15C31.5143 15 31.5706 14.9334 31.6269 14.9334C31.9084 14.6006 32.0773 14.1346 31.9647 13.6686C31.9084 12.7366 31.458 11.2055 30.7824 10.8061C29.9941 10.3401 23.3503 9.94072 22.7873 10.0073C22.0554 10.2736 21.436 10.9393 21.0982 11.8047C20.9293 12.1375 20.9856 12.5369 21.2108 12.8698C21.3234 13.0029 21.4923 13.2026 26.3907 14.2012ZM22.8999 11.0058C23.4629 10.9393 29.8252 11.4052 30.3882 11.7381C30.6698 12.0709 30.8387 12.4704 30.9513 12.9363C31.0639 13.3358 31.1202 13.6686 31.1202 14.068C29.8815 14.0015 23.1251 12.6701 21.8865 12.2041C22.1117 11.6715 22.4495 11.2055 22.8999 11.0058Z" fill="#9BA0A4"/>
<path d="M36.9418 37.1634C36.9418 35.9776 36.8837 34.7917 36.8837 34.722L36.5347 20.2128C36.5347 20.143 36.5347 20.143 36.5347 20.0732C36.302 18.7479 35.953 17.4923 35.5459 16.3064C35.3132 15.7484 34.906 14.2137 34.4989 12.7489C33.7427 10.0981 33.5101 9.19132 33.3356 8.91229C33.3356 8.84254 33.2774 8.84255 33.2774 8.77279C32.9866 8.21475 32.6958 7.93572 30.1946 7.58694C27.3445 7.23816 24.4362 7.09864 21.5861 7.23816C20.8881 7.30791 20.2483 7.72646 19.8412 8.42402C19.6667 8.63328 19.4922 8.91229 19.2013 9.26107L19.0268 9.47035C18.2125 10.3772 17.7472 10.8655 17.1655 10.8655C17.1074 10.8655 17.0492 10.8655 16.9911 10.7957C16.9911 10.726 16.9329 10.7259 16.9329 10.6562C16.991 9.81912 17.0492 8.91231 17.1074 8.07524C17.1655 7.58694 16.8166 7.09864 16.4094 7.09864C16.3512 7.09864 16.3512 7.09864 16.2931 7.09864C15.7114 7.02888 12.396 6.95914 12.1051 7.0289H12.047C11.6398 7.0289 11.2908 7.3079 11.1745 7.7962C11.0582 8.56351 11 9.40058 11 10.2377C11 10.4469 11 10.6562 11.0582 10.8655V11.0747C11.0582 11.0747 11.1163 13.5162 11.2327 15.1903C11.2908 16.3762 11.2908 23.561 11.2327 28.3044C11.2327 30.2576 11.2327 31.7922 11.2327 32.2805C11.2327 33.8849 11.2327 38.419 11.2327 38.419C11.1745 39.1864 11.349 39.8839 11.698 40.5117C11.9306 40.8605 12.2796 41 12.6286 41C12.9776 41 15.7114 41 19.1432 41C25.7159 41 35.0224 41 35.6622 41H35.7204C36.4765 40.8605 37 40.0932 37 39.1863C36.9418 38.6283 36.9418 37.9307 36.9418 37.1634ZM17.1074 11.9118C18.038 11.9118 18.6779 11.2142 19.5503 10.2377L19.7248 10.0284C20.0157 9.67961 20.2483 9.4006 20.4228 9.12157C20.83 8.56353 21.0045 8.35425 21.528 8.28449C24.3199 8.14498 27.17 8.28449 29.962 8.63327C32.2304 8.98205 32.3468 9.19132 32.4049 9.33083C32.4631 9.40059 32.4631 9.5401 32.5213 9.60985C32.6958 9.88888 33.1611 11.7025 33.5682 13.0976C34.0336 14.6323 34.3826 16.0972 34.6152 16.725C35.0224 17.9108 35.3132 19.0967 35.5459 20.2825L35.8949 34.7917C35.8949 34.7917 35.953 35.6986 35.953 36.6751H11.9306C11.9306 35.2103 11.9306 33.1873 11.9306 32.2108C11.9306 31.7225 11.9306 30.1878 11.9306 28.2347C11.9306 23.4913 11.9888 16.3064 11.9306 15.1206C11.8725 13.7952 11.8143 11.9815 11.8143 11.284L16.0022 11.1445C16.0604 11.284 16.1186 11.4235 16.2349 11.563C16.5257 11.8421 16.8166 11.9816 17.1074 11.9118ZM12.047 8.07524H12.1051C12.396 8.07524 15.7114 8.07522 16.1186 8.14497C16.1186 8.77278 16.0604 9.47035 16.0022 10.0982L11.7562 10.2377V10.1679C11.7562 9.47035 11.8143 8.77279 11.8725 8.07524H12.047ZM36.0694 39.1166C36.0694 39.4654 35.8949 39.8141 35.5459 39.8839C34.4989 39.8839 13.6756 39.9537 12.6286 39.8839C12.5123 39.8839 12.396 39.8142 12.3378 39.7444C12.1051 39.3259 12.047 38.8376 12.1051 38.419V37.7912H36.1275C36.1275 38.2795 36.1275 38.7678 36.0694 39.1166C36.0694 39.0468 36.0694 39.0468 36.0694 39.1166Z" fill="#9BA0A4"/>
</svg>
